<svg xmlns="http://www.w3.org/2000/svg" data-name="레이어 1" viewBox="0 0 100 100" x="0px" y="0px"><title>대지 1 사본 15</title><path d="M71.14,26.89A31.3,31.3,0,1,0,81.33,50,31.21,31.21,0,0,0,71.14,26.89ZM79.25,52c0,.34,0,.68-.08,1s0,.4-.08.59-.07.6-.11.89l-.12.64c0,.27-.09.55-.15.83l-.15.65c-.06.27-.12.53-.19.8s-.12.43-.19.65-.14.52-.23.78-.14.43-.21.64l-.27.76c-.08.22-.17.43-.25.64l-.3.74-.29.63c-.11.24-.22.48-.34.72s-.21.41-.32.62-.24.46-.37.69-.23.41-.35.61-.26.45-.4.67l-.39.59c-.14.22-.28.44-.43.65l-.42.58c-.15.21-.31.41-.47.62s-.29.38-.44.56-.33.4-.5.59l-.48.55-.52.56-.53.54-.2.19-.21-.19-.52-.54-.52-.55-.48-.56c-.17-.19-.34-.39-.5-.59L67.79,68c-.16-.2-.31-.41-.47-.62l-.41-.58c-.15-.21-.29-.43-.44-.65s-.25-.39-.38-.59l-.41-.67c-.11-.2-.23-.4-.34-.61s-.26-.46-.38-.7-.21-.4-.31-.61-.24-.48-.35-.73-.19-.41-.28-.62l-.3-.75c-.09-.21-.17-.41-.25-.62s-.18-.52-.27-.78L63,58.83c-.08-.26-.15-.53-.23-.79l-.18-.64c-.07-.27-.13-.54-.2-.82s-.1-.42-.14-.63-.11-.56-.16-.85-.08-.41-.11-.61-.08-.6-.12-.9-.05-.39-.07-.59-.06-.67-.08-1c0-.16,0-.32,0-.48s0-.34,0-.51H79.3c0,.17,0,.34,0,.51S79.26,51.83,79.25,52ZM61.69,48c0-.34,0-.68.08-1s0-.39.07-.59.07-.6.12-.9.07-.41.11-.61.1-.57.16-.85.1-.43.14-.64.13-.54.2-.81l.18-.64c.08-.26.15-.53.23-.79s.15-.42.22-.64.17-.51.27-.77.16-.41.25-.62l.3-.75c.09-.21.19-.42.28-.62s.23-.49.35-.73.2-.41.31-.61.25-.47.38-.7.22-.41.34-.61l.41-.67c.13-.2.25-.4.38-.59s.29-.44.44-.65l.41-.58.47-.62.45-.56c.16-.2.33-.4.5-.59l.48-.55.52-.56.52-.54.21-.19.21.2.52.53.52.56.48.54.5.6c.15.18.3.37.44.56s.32.41.47.62l.42.58c.15.21.29.43.44.65l.38.59c.14.22.27.45.4.67s.24.4.35.61l.38.69c.1.21.21.41.31.62s.23.48.34.72l.29.63.3.74c.08.21.17.42.25.64l.27.76c.07.21.15.43.21.64s.16.52.23.78.13.43.19.65.13.53.19.8l.15.65c.06.28.1.55.15.83l.12.64c0,.29.08.59.11.88s.06.4.08.6.06.67.08,1c0,.16,0,.32,0,.48s0,.34,0,.51H61.64c0-.17,0-.34,0-.51S61.68,48.17,61.69,48ZM50,20.67a29.29,29.29,0,0,1,19,7l-.2.21-.5.51-.6.65-.48.55c-.19.22-.37.43-.55.66s-.31.38-.46.58-.35.45-.52.68l-.43.6-.47.7c-.14.21-.27.42-.4.63s-.3.48-.44.72l-.37.65-.39.73c-.12.22-.23.45-.34.67s-.24.5-.36.76-.21.45-.31.68-.21.51-.32.78-.18.45-.26.68l-.29.81c-.08.23-.16.46-.23.69s-.16.55-.24.82-.14.47-.2.7-.14.57-.2.86-.11.45-.16.69-.11.59-.17.89l-.12.67c0,.31-.08.63-.12,1s-.06.42-.08.63-.06.71-.09,1.07c0,.17,0,.35,0,.52s0,.41,0,.61H40.36c0-.2,0-.4,0-.61s0-.34,0-.52c0-.35-.05-.71-.09-1.07,0-.21,0-.42-.08-.63s-.07-.63-.12-1l-.12-.67c0-.3-.11-.6-.17-.89L39.58,43l-.21-.86c-.06-.23-.13-.46-.19-.68s-.16-.57-.25-.84-.15-.46-.23-.69-.19-.54-.29-.81-.17-.45-.26-.68-.21-.53-.33-.79-.19-.44-.29-.66-.24-.52-.37-.78l-.33-.65-.4-.75c-.12-.21-.24-.42-.37-.63s-.29-.49-.44-.74l-.39-.61c-.16-.24-.32-.48-.49-.71s-.28-.4-.42-.6l-.52-.69-.45-.57-.56-.67L32.31,29l-.6-.65-.5-.51-.2-.21A29.29,29.29,0,0,1,50,20.67ZM29.53,29l.21.21c.18.17.35.35.51.52l.53.57.48.54.5.6.45.56c.16.2.31.41.46.62s.29.39.42.58l.44.64c.13.2.26.4.38.6s.27.44.4.67l.36.61.37.69c.1.21.21.42.32.63l.33.7c.1.22.2.43.29.64l.3.73c.08.22.17.43.25.65s.18.5.27.75.15.43.22.65.15.52.23.77l.18.66c.07.26.13.53.19.8s.11.43.15.65.11.55.16.83.08.42.11.64.08.59.12.88.05.4.07.6.06.65.08,1c0,.17,0,.34,0,.51s0,.34,0,.51H20.7A29.4,29.4,0,0,1,29.53,29ZM20.7,51H38.36c0,.17,0,.34,0,.5s0,.34,0,.51c0,.33,0,.66-.08,1s0,.4-.07.6-.07.59-.12.88-.08.43-.11.64-.1.56-.16.83-.1.43-.15.65-.12.53-.19.8l-.18.65c-.08.26-.15.52-.23.78s-.15.43-.22.65-.17.5-.27.75-.17.43-.25.65l-.3.73c-.09.21-.19.42-.29.64l-.33.7c-.11.21-.22.42-.32.63l-.37.69-.36.61c-.13.23-.26.45-.4.67s-.25.4-.39.6-.28.43-.43.64-.27.39-.42.58l-.46.62-.45.56c-.16.2-.33.4-.5.59l-.48.55-.52.56c-.17.18-.34.36-.52.53l-.21.21A29.4,29.4,0,0,1,20.7,51ZM50,79.33a29.29,29.29,0,0,1-19-7l.2-.21.5-.51.6-.65.48-.55.56-.66.45-.57.52-.69.43-.6c.16-.23.32-.47.47-.71s.27-.41.4-.62.3-.48.44-.72l.37-.64.4-.75.33-.65c.13-.26.25-.52.37-.78s.2-.44.29-.66.22-.53.33-.79.18-.45.26-.68.2-.54.29-.82.16-.45.23-.68.17-.56.25-.84.13-.45.19-.68l.21-.86.15-.69c.06-.29.11-.59.17-.89l.12-.67c0-.32.08-.64.12-1s.06-.41.08-.62c0-.36.06-.72.09-1.08,0-.17,0-.34,0-.51s0-.41,0-.61H59.64c0,.2,0,.4,0,.61s0,.35,0,.52c0,.36.05.71.09,1.07,0,.21,0,.42.08.63s.07.63.12,1l.12.67c.06.3.11.6.17.89s.1.46.16.69.13.57.2.86.13.46.2.69.15.56.24.83.15.46.23.69.19.54.29.81.17.45.26.68.21.53.32.78.21.46.31.68.23.51.36.76.22.45.34.67l.39.73.37.65.44.72c.13.21.26.42.4.63s.31.47.47.69.29.41.43.61.34.46.52.68.3.39.46.58l.55.66.48.55.6.64.5.52.2.21A29.29,29.29,0,0,1,50,79.33Z"/></svg>