<svg xmlns="http://www.w3.org/2000/svg" data-name="Livello 1" viewBox="0 0 28 31.25" x="0px" y="0px"><defs><style>.cls-1{fill:none;stroke:#000;stroke-linecap:round;stroke-linejoin:round;}</style></defs><title>Senza titolo-1</title><line class="cls-1" x1="24.96" y1="16.28" x2="23.91" y2="16.28"/><path class="cls-1" d="M25,12.17a2.05,2.05,0,0,1,0,4.11"/><line class="cls-1" x1="23.96" y1="20.39" x2="22.9" y2="20.39"/><path class="cls-1" d="M24,16.28a2.05,2.05,0,0,1,0,4.11"/><path class="cls-1" d="M7.67,12.08a49.38,49.38,0,0,0,3.75-4.67,15.36,15.36,0,0,0,.94-1.57,4.17,4.17,0,0,0,.37-1.28A33.57,33.57,0,0,0,13,.9,1.47,1.47,0,0,1,13.77.51c1.12-.17,2.17,1.23,2.62,2.14A5,5,0,0,1,16.82,4c0.16,0.88.34,1.66-.39,4.24l9.06-.17a2,2,0,0,1,2,2.4,2.09,2.09,0,0,1-2.08,1.71h-2"/><path class="cls-1" d="M22.12,20.39a2,2,0,0,1,2,2.4A2.09,2.09,0,0,1,22,24.5H14.25a8.71,8.71,0,0,1-3.31-.65L7.58,21.67"/><rect class="cls-1" x="0.5" y="9" width="7" height="15" rx="1" ry="1"/></svg>