<svg xmlns:dc="http://purl.org/dc/elements/1.1/" xmlns:cc="http://creativecommons.org/ns#" xmlns:rdf="http://www.w3.org/1999/02/22-rdf-syntax-ns#" xmlns:svg="http://www.w3.org/2000/svg" xmlns="http://www.w3.org/2000/svg" xmlns:sodipodi="http://sodipodi.sourceforge.net/DTD/sodipodi-0.dtd" xmlns:inkscape="http://www.inkscape.org/namespaces/inkscape" fill="#000000" version="1.1" x="0px" y="0px" viewBox="0 0 100 100"><path style="font-size:medium;font-style:normal;font-variant:normal;font-weight:normal;font-stretch:normal;text-indent:0;text-align:start;text-decoration:none;line-height:normal;letter-spacing:normal;word-spacing:normal;text-transform:none;direction:ltr;block-progression:tb;writing-mode:lr-tb;text-anchor:start;baseline-shift:baseline;opacity:1;color:#000000;fill:#000000;fill-opacity:1;stroke:none;stroke-width:2;marker:none;visibility:visible;display:inline;overflow:visible;enable-background:accumulate;font-family:Sans;-inkscape-font-specification:Sans" d="M 12 22 C 9.2472972 22 7 24.247297 7 27 L 7 73 C 7 75.752703 9.2472972 78 12 78 L 88 78 C 90.752703 78 93 75.752703 93 73 L 93 27 C 93 24.247297 90.752703 22 88 22 L 12 22 z M 12 24 L 88 24 C 88.470901 24 88.919208 24.094763 89.3125 24.28125 L 50 54.75 L 10.6875 24.28125 C 11.080792 24.094763 11.529099 24 12 24 z M 9.28125 25.71875 L 36.65625 46.90625 L 9.28125 74.3125 C 9.0947632 73.919208 9 73.470901 9 73 L 9 27 C 9 26.539065 9.1021431 26.105756 9.28125 25.71875 z M 90.71875 25.71875 C 90.897857 26.105756 91 26.539065 91 27 L 91 73 C 91 73.470901 90.905237 73.919208 90.71875 74.3125 L 63.34375 46.90625 L 90.71875 25.71875 z M 38.25 48.15625 L 49.375 56.78125 A 1.0001 1.0001 0 0 0 50.625 56.78125 L 61.75 48.15625 L 89.3125 75.71875 C 88.919208 75.905237 88.470901 76 88 76 L 12 76 C 11.529099 76 11.080792 75.905237 10.6875 75.71875 L 38.25 48.15625 z "/></svg>