<svg xmlns="http://www.w3.org/2000/svg" xmlns:xlink="http://www.w3.org/1999/xlink" version="1.1" x="0px" y="0px" viewBox="0 0 100 100" style="enable-background:new 0 0 100 100;" xml:space="preserve"><g><path d="M55,39c-7.7,0-14,6.3-14,14s6.3,14,14,14s14-6.3,14-14S62.7,39,55,39z M55,65c-6.6,0-12-5.4-12-12s5.4-12,12-12   s12,5.4,12,12S61.6,65,55,65z"/><path d="M76.1,29h-5.1l-6.7-6.7C64,22.1,63.8,22,63.5,22l-17.1,0c-0.3,0-0.5,0.1-0.7,0.3L39,29h-5.1C29,29,25,33,25,37.9v31.1   c0,4.9,4,8.9,8.9,8.9h42.1c4.9,0,8.9-4,8.9-8.9V37.9C85,33,81,29,76.1,29z M83,69.1c0,3.8-3.1,6.9-6.9,6.9H33.9   c-3.8,0-6.9-3.1-6.9-6.9V37.9c0-3.8,3.1-6.9,6.9-6.9h5.5c0.3,0,0.5-0.1,0.7-0.3l6.7-6.7l16.2,0l6.7,6.7c0.2,0.2,0.6,0.3,0.9,0.3   h5.3c3.8,0,6.9,3.1,6.9,6.9V69.1z"/></g></svg>